<?xml version="1.0" standalone="no"?>
<!DOCTYPE svg PUBLIC "-//W3C//DTD SVG 20010904//EN"
 "http://www.w3.org/TR/2001/REC-SVG-20010904/DTD/svg10.dtd">
<svg version="1.0" xmlns="http://www.w3.org/2000/svg"
 width="766.000000pt" height="766.000000pt" viewBox="0 0 766.000000 766.000000"
 preserveAspectRatio="xMidYMid meet">
<metadata>
Created by potrace 1.11, written by Peter Selinger 2001-2013
</metadata>
<g transform="translate(0.000000,766.000000) scale(0.100000,-0.100000)"
fill="#000000" stroke="none">
<path d="M526 5154 c-168 -37 -309 -137 -423 -300 -37 -53 -76 -155 -91 -239
-4 -28 -8 -392 -7 -810 2 -673 4 -767 19 -820 69 -252 286 -450 536 -492 134
-22 292 2 415 62 101 50 233 177 288 276 52 94 99 285 78 316 -9 13 -441 12
-442 -1 -5 -75 -45 -141 -111 -182 -56 -35 -145 -40 -206 -12 -54 26 -106 86
-121 141 -9 31 -11 236 -9 757 3 674 4 717 22 749 61 114 192 153 307 93 58
-30 103 -91 112 -150 3 -19 7 -36 10 -38 3 -4 222 -6 384 -5 l63 1 -5 48 c-13
114 -28 168 -72 257 -62 122 -184 242 -308 300 -125 60 -300 79 -439 49z"/>
<path d="M4080 4814 c0 -335 -1 -356 -17 -349 -102 40 -298 41 -417 1 -237
-80 -424 -303 -454 -541 -8 -68 -8 -785 1 -860 24 -217 172 -419 378 -516 92
-44 172 -61 284 -61 106 0 160 9 248 42 187 70 362 269 409 465 8 37 13 335
15 1113 l4 1062 -226 0 -225 0 0 -356z m-135 -783 c49 -22 87 -57 112 -102 16
-31 18 -67 21 -414 3 -419 1 -439 -54 -503 -103 -120 -292 -98 -364 44 l-25
48 0 390 c0 384 1 392 22 433 26 48 85 100 128 112 50 15 118 12 160 -8z"/>
<path d="M2130 4485 c-241 -48 -437 -227 -512 -467 -20 -66 -23 -93 -23 -273
0 -262 19 -338 120 -480 126 -178 326 -286 530 -287 197 -1 344 57 479 187 90
86 135 154 173 259 29 82 35 124 37 278 4 246 -20 357 -103 484 -87 135 -229
242 -381 289 -71 21 -236 27 -320 10z m216 -446 c41 -12 95 -64 119 -114 17
-34 20 -61 20 -190 -1 -133 -3 -155 -22 -190 -42 -80 -105 -119 -193 -119 -95
-1 -165 39 -208 119 -25 46 -30 301 -7 361 47 122 158 173 291 133z"/>
<path d="M5310 4484 c-275 -55 -490 -283 -528 -560 -10 -75 -8 -334 3 -399 22
-130 88 -251 194 -355 148 -145 300 -198 546 -189 31 1 165 38 205 56 94 44
241 177 294 266 31 54 74 164 82 211 3 17 6 110 8 206 3 204 -8 279 -59 388
-43 90 -72 130 -155 210 -154 147 -374 209 -590 166z m236 -454 c52 -26 97
-80 113 -135 15 -54 14 -268 -1 -319 -18 -58 -91 -131 -147 -146 -103 -27
-199 11 -259 103 -26 41 -27 45 -27 202 0 155 1 161 27 205 62 106 184 143
294 90z"/>
<path d="M6885 4493 c-127 -25 -225 -67 -305 -132 -129 -104 -194 -198 -241
-351 l-23 -75 -1 -725 0 -725 218 0 c120 0 221 3 224 8 2 4 5 312 4 685 0 754
-1 739 67 805 93 91 230 89 319 -4 64 -68 63 -50 63 -808 l0 -686 218 1 c119
1 220 2 223 3 3 0 5 326 4 724 l-1 722 -24 80 c-66 221 -242 396 -465 461 -56
16 -229 26 -280 17z"/>
<path d="M1601 2615 l-1 -135 672 2 672 3 0 130 0 130 -671 3 -672 2 0 -135z"/>
<path d="M4784 2618 l1 -133 671 -3 671 -2 0 135 0 135 -672 0 -671 0 0 -132z"/>
</g>
</svg>
