<svg id="Laag_1" data-name="Laag 1" xmlns="http://www.w3.org/2000/svg" viewBox="0 0 765.97 269.22">
    <defs>
        <style>
            .cls-1 {
                fill: white;
            }
        </style>
    </defs>
    <title>Codon</title>
    <path class="cls-1" d="M174.09,418.58q0,27.78-19.71,47.48T106.9,485.77q-27.78,0-47.48-19.71T39.71,418.58V284.19q0-27.77,19.71-47.48T106.9,217q27.77,0,47.48,19.71t19.71,47.48H129.3a22.18,22.18,0,0,0-22.4-22.4,22.18,22.18,0,0,0-22.4,22.4V418.58A22.18,22.18,0,0,0,106.9,441a22.18,22.18,0,0,0,22.4-22.4Z" transform="translate(-39.71 -217)" />
    <path class="cls-1" d="M333.11,369.3q0,27.78-19.71,47.48t-47.48,19.71q-27.78,0-47.48-19.71T198.73,369.3V351.38q0-27.77,19.71-47.48t47.48-19.71q27.77,0,47.48,19.71t19.71,47.48Zm.9,116.91H199.62V459.34H334ZM288.32,369.3V351.38a22.4,22.4,0,1,0-44.79,0V369.3a22.4,22.4,0,1,0,44.79,0Z" transform="translate(-39.71 -217)" />
    <path class="cls-1" d="M492.58,418.58q0,27.78-19.71,47.48t-47.48,19.71q-27.78,0-47.48-19.71t-19.71-47.48V351.38q0-27.77,19.71-47.48t47.48-19.71a65.77,65.77,0,0,1,22.4,4V217h44.8Zm-44.8,0V351.38a22.4,22.4,0,1,0-44.8,0v67.19a22.4,22.4,0,1,0,44.8,0Z" transform="translate(-39.71 -217)" />
    <path class="cls-1" d="M651.59,369.3q0,27.78-19.71,47.48T584.4,436.49q-27.78,0-47.48-19.71T517.21,369.3V351.38q0-27.77,19.71-47.48t47.48-19.71q27.77,0,47.48,19.71t19.71,47.48Zm.9,116.91H518.11V459.34H652.49ZM606.8,369.3V351.38a22.4,22.4,0,1,0-44.79,0V369.3a22.4,22.4,0,1,0,44.79,0Z" transform="translate(-39.71 -217)" />
    <path class="cls-1" d="M805.68,485.77h-44.8V351.38a22.4,22.4,0,1,0-44.8,0V485.77H671.3V351.38q0-27.77,19.71-47.48t47.48-19.71q27.77,0,47.48,19.71t19.71,47.48Z" transform="translate(-39.71 -217)" />
</svg>
